<svg width="226" height="59" viewBox="0 0 226 59" fill="none" xmlns="http://www.w3.org/2000/svg">
<path d="M42.3672 36.7852V39.0703C38.4297 43.4531 34.8086 47.0625 31.5039 49.8984C28.2227 52.7578 25.0117 54.9492 21.8711 56.4727C18.7305 58.0195 15.6953 58.793 12.7656 58.793C10.2344 58.793 8.05469 58.2891 6.22656 57.2812C4.42188 56.2734 3.05078 54.7969 2.11328 52.8516C1.19922 50.9297 0.742188 48.6445 0.742188 45.9961C0.742188 43.9102 1.07031 41.707 1.72656 39.3867C2.40625 37.043 3.37891 34.6875 4.64453 32.3203C5.91016 29.9297 7.45703 27.4688 9.28516 24.9375C11.1367 22.4062 13.3047 19.7461 15.7891 16.957C18.3672 14.0742 20.9102 11.5898 23.418 9.50391C25.9258 7.39453 28.1992 5.74219 30.2383 4.54688C32.2773 3.35156 34.1641 2.46094 35.8984 1.875C37.6562 1.28906 39.1094 0.996094 40.2578 0.996094C41.4297 0.996094 42.4258 1.27734 43.2461 1.83984C44.0664 2.40234 44.6992 3.22266 45.1445 4.30078C45.5898 5.37891 45.8125 6.62109 45.8125 8.02734C45.8125 10.6758 44.9102 13.6289 43.1055 16.8867C41.3008 20.1211 39.0508 23.25 36.3555 26.2734C33.6602 29.2969 31.082 31.7695 28.6211 33.6914C26.1836 35.5898 24.4258 36.5391 23.3477 36.5391C22.6211 36.5391 21.9414 36.2578 21.3086 35.6953C20.6992 35.1094 20.3945 34.4531 20.3945 33.7266C20.3945 32.3906 21.0977 30.7734 22.5039 28.875C23.9336 26.9766 25.4805 25.2422 27.1445 23.6719C28.832 22.0781 29.8398 21.2812 30.168 21.2812C30.332 21.2812 30.4141 21.3516 30.4141 21.4922C30.4141 21.7031 30.2852 22.0664 30.0273 22.582C29.793 23.0977 29.6758 23.4141 29.6758 23.5312C29.6758 23.7188 29.7461 23.8125 29.8867 23.8125C30.2852 23.8125 31.4336 22.7461 33.332 20.6133C35.2305 18.4805 36.9648 16.1367 38.5352 13.582C40.1289 11.0039 40.9258 8.89453 40.9258 7.25391C40.9258 6.57422 40.7734 6.05859 40.4688 5.70703C40.1875 5.33203 39.7539 5.14453 39.168 5.14453C37.5273 5.14453 35.0312 6.48047 31.6797 9.15234C28.3516 11.8008 24.9297 15.1875 21.4141 19.3125C17.9219 23.4141 15.0039 27.6562 12.6602 32.0391C10.3164 36.4219 9.14453 40.2773 9.14453 43.6055C9.14453 45.5273 9.42578 47.1328 9.98828 48.4219C10.5742 49.7109 11.418 50.707 12.5195 51.4102C13.6445 52.1133 14.9922 52.4648 16.5625 52.4648C19.9609 52.4648 23.8164 51.1406 28.1289 48.4922C32.4414 45.8438 37.1875 41.9414 42.3672 36.7852ZM41.7344 39.6328V37.3477C43 35.8477 43.9609 34.5703 44.6172 33.5156C43.8672 33.2578 43.3164 32.9414 42.9648 32.5664C42.6367 32.1914 42.4727 31.6289 42.4727 30.8789C42.4727 30.0352 42.8242 28.9688 43.5273 27.6797C44.2305 26.3906 45.0977 25.1836 46.1289 24.0586C47.1602 22.9336 48.0977 22.207 48.9414 21.8789C49.2695 21.7148 49.5859 21.6328 49.8906 21.6328C50.3594 21.6328 50.5938 21.8555 50.5938 22.3008C50.5938 22.6992 50.2305 23.5078 49.5039 24.7266C54.332 23.9766 57.3789 23.6016 58.6445 23.6016C59.1367 23.6016 59.4766 23.6484 59.6641 23.7422C60.0625 23.9531 60.3906 24.4453 60.6484 25.2188C60.9062 25.9922 61.0352 26.7656 61.0352 27.5391C61.0352 28.0312 60.8125 28.5703 60.3672 29.1562C59.9453 29.7188 59.207 30.5508 58.1523 31.6523C56.9102 32.9883 55.8672 34.4414 55.0234 36.0117C54.1797 37.582 53.7578 38.7656 53.7578 39.5625C53.7578 40.6641 54.4375 41.2148 55.7969 41.2148C57.2266 41.2148 59.7109 39.7617 63.25 36.8555V39.2109C61.3047 41.25 59.6992 42.8555 58.4336 44.0273C57.168 45.1992 55.9961 46.1367 54.918 46.8398C53.8398 47.5195 52.8789 47.8594 52.0352 47.8594C51.0508 47.8594 50.2305 47.4141 49.5742 46.5234C48.918 45.6094 48.5898 44.2969 48.5898 42.5859C48.5898 41.5781 48.8477 40.4297 49.3633 39.1406C49.8789 37.8516 50.6289 36.457 51.6133 34.957C52.6211 33.4336 53.7461 31.9219 54.9883 30.4219C54.332 30.5625 53.5938 30.7148 52.7734 30.8789C51.9531 31.0195 51.0859 31.1719 50.1719 31.3359C49.2578 31.5 48.5547 31.6289 48.0625 31.7227C46.6094 34.6289 44.5 37.2656 41.7344 39.6328ZM85.7148 36.8555V39.2109C84.168 40.6172 82.9258 41.5547 81.9883 42.0234C81.0508 42.4922 79.7031 42.6797 77.9453 42.5859C74.8984 46.1953 72.2148 48 69.8945 48C68.582 48 67.3867 47.5664 66.3086 46.6992C65.2305 45.832 64.3633 44.6484 63.707 43.1484C63.0742 41.6484 62.7578 39.9727 62.7578 38.1211C62.7578 36.6211 63.25 34.957 64.2344 33.1289C65.2422 31.3008 66.5312 29.6016 68.1016 28.0312C69.6953 26.4375 71.3945 25.1602 73.1992 24.1992C75.0039 23.2148 76.6797 22.7227 78.2266 22.7227C79.3281 22.7227 80.1953 22.8984 80.8281 23.25C81.4609 23.5781 81.7773 24.0469 81.7773 24.6562C81.7773 25.125 81.5078 25.6641 80.9688 26.2734C81.8594 26.4609 82.4688 26.7773 82.7969 27.2227C83.125 27.6445 83.2891 28.4297 83.2891 29.5781C83.2891 30.7031 83.0195 32.1211 82.4805 33.832C81.9648 35.543 81.25 37.1484 80.3359 38.6484L80.9688 39.2812H81.4961C81.8945 39.2812 82.2812 39.1875 82.6562 39C83.0547 38.7891 83.4062 38.5781 83.7109 38.3672C84.0156 38.1328 84.6836 37.6289 85.7148 36.8555ZM78.4727 27.6094C76.5273 28.7812 74.8633 29.8477 73.4805 30.8086C72.0977 31.7461 70.9258 32.707 69.9648 33.6914C69.0039 34.6523 68.3594 35.625 68.0312 36.6094C67.4453 39.2344 67.1523 40.6523 67.1523 40.8633C67.1523 42.4102 68.2305 43.1836 70.3867 43.1836C71.3945 43.1836 73.082 42.3164 75.4492 40.582C75.0508 39.4805 74.8516 38.4258 74.8516 37.418C74.8516 35.9414 75.1562 34.4414 75.7656 32.918C76.375 31.3711 77.2773 29.6016 78.4727 27.6094ZM100.094 21.2109C99.5078 21.2109 98.9453 20.9883 98.4062 20.543C97.8906 20.0977 97.6328 19.5352 97.6328 18.8555C97.6328 17.8242 98.125 16.6758 99.1094 15.4102C100.094 14.1445 101.113 13.5117 102.168 13.5117C102.871 13.5117 103.457 13.7344 103.926 14.1797C104.395 14.6016 104.629 15.2227 104.629 16.043C104.629 17.0508 104.148 18.1641 103.188 19.3828C102.227 20.6016 101.195 21.2109 100.094 21.2109ZM102.484 36.9258V39.4922C100.211 42.4219 98.0898 44.6367 96.1211 46.1367C94.1523 47.6133 92.4766 48.3516 91.0938 48.3516C89.1719 48.3516 87.7422 47.3438 86.8047 45.3281C85.8672 43.3125 85.3984 41.1094 85.3984 38.7188C85.3984 37.8047 85.4922 36.9375 85.6797 36.1172C85.8672 35.2734 86.0898 34.582 86.3477 34.043C86.6055 33.5039 87.0859 32.6602 87.7891 31.5117C91.1172 26.332 94.1641 23.7422 96.9297 23.7422C98.3594 23.7422 99.0742 24.293 99.0742 25.3945C99.0742 26.1445 98.6055 27.3164 97.668 28.9102C96.7539 30.5039 95.9336 31.6406 95.207 32.3203C93.168 34.2891 91.832 35.6602 91.1992 36.4336C90.5898 37.207 90.2852 38.0859 90.2852 39.0703C90.2852 39.9141 90.6016 40.6172 91.2344 41.1797C91.8672 41.7422 92.6875 42.0234 93.6953 42.0234C94.7969 42.0234 96.0039 41.625 97.3164 40.8281C98.6523 40.0078 100.375 38.707 102.484 36.9258ZM102.062 37.9102V37.0664C108.109 30.6914 112.27 26.2266 114.543 23.6719C115.059 20.7891 116.301 19.3477 118.27 19.3477C118.762 19.3477 119.289 19.4883 119.852 19.7695L120.062 20.4375C119.969 20.7188 119.922 21.1172 119.922 21.6328C119.922 22.0781 120.086 22.9102 120.414 24.1289C120.766 25.3242 121.035 26.332 121.223 27.1523C121.41 27.9727 121.504 28.8984 121.504 29.9297C121.504 31.4766 121.152 32.9648 120.449 34.3945C119.746 35.8008 118.727 37.1602 117.391 38.4727C116.055 39.7617 114.332 41.0859 112.223 42.4453C113.066 42.5859 113.734 42.6562 114.227 42.6562C115.188 42.6562 116.219 42.4219 117.32 41.9531C118.445 41.4609 119.582 40.8164 120.73 40.0195C121.902 39.1992 123.262 38.1445 124.809 36.8555V39.2109C121.809 42.1406 119.125 44.3672 116.758 45.8906C114.391 47.3906 112.352 48.1406 110.641 48.1406C108.438 48.1406 106.398 47.2031 104.523 45.3281C103.422 44.2031 102.73 43.125 102.449 42.0938C102.191 41.0625 102.062 39.668 102.062 37.9102ZM115.176 32.5312L114.543 27.3984C113.09 29.0391 109.984 32.1914 105.227 36.8555C106.633 37.1602 107.594 37.5703 108.109 38.0859C108.625 38.6016 109.352 39.5977 110.289 41.0742C111.883 40.418 113.102 39.5273 113.945 38.4023C114.812 37.2539 115.246 35.6953 115.246 33.7266C115.246 33.4922 115.234 33.2812 115.211 33.0938C115.211 32.9062 115.199 32.7188 115.176 32.5312ZM124.562 37.9102V37.0664C130.609 30.6914 134.77 26.2266 137.043 23.6719C137.559 20.7891 138.801 19.3477 140.77 19.3477C141.262 19.3477 141.789 19.4883 142.352 19.7695L142.562 20.4375C142.469 20.7188 142.422 21.1172 142.422 21.6328C142.422 22.0781 142.586 22.9102 142.914 24.1289C143.266 25.3242 143.535 26.332 143.723 27.1523C143.91 27.9727 144.004 28.8984 144.004 29.9297C144.004 31.4766 143.652 32.9648 142.949 34.3945C142.246 35.8008 141.227 37.1602 139.891 38.4727C138.555 39.7617 136.832 41.0859 134.723 42.4453C135.566 42.5859 136.234 42.6562 136.727 42.6562C137.688 42.6562 138.719 42.4219 139.82 41.9531C140.945 41.4609 142.082 40.8164 143.23 40.0195C144.402 39.1992 145.762 38.1445 147.309 36.8555V39.2109C144.309 42.1406 141.625 44.3672 139.258 45.8906C136.891 47.3906 134.852 48.1406 133.141 48.1406C130.938 48.1406 128.898 47.2031 127.023 45.3281C125.922 44.2031 125.23 43.125 124.949 42.0938C124.691 41.0625 124.562 39.668 124.562 37.9102ZM137.676 32.5312L137.043 27.3984C135.59 29.0391 132.484 32.1914 127.727 36.8555C129.133 37.1602 130.094 37.5703 130.609 38.0859C131.125 38.6016 131.852 39.5977 132.789 41.0742C134.383 40.418 135.602 39.5273 136.445 38.4023C137.312 37.2539 137.746 35.6953 137.746 33.7266C137.746 33.4922 137.734 33.2812 137.711 33.0938C137.711 32.9062 137.699 32.7188 137.676 32.5312ZM151.316 30.6328C154.879 27.3984 158.336 24.9961 161.688 23.4258C165.039 21.8555 167.629 21.0703 169.457 21.0703C169.949 21.0703 170.406 21.2812 170.828 21.7031C171.25 22.1016 171.578 22.5703 171.812 23.1094C172.07 23.6484 172.199 24.0469 172.199 24.3047C172.199 24.7266 172.035 25.043 171.707 25.2539C171.379 25.4414 170.805 25.6758 169.984 25.957C170.148 26.332 170.359 26.8125 170.617 27.3984C170.875 27.9844 171.074 28.4648 171.215 28.8398C171.355 29.1914 171.426 29.5078 171.426 29.7891C171.426 30.3516 170.852 31.4062 169.703 32.9531C168.578 34.4766 167.781 35.6016 167.312 36.3281C166.867 37.0547 166.645 37.9453 166.645 39C166.645 40.7344 167.441 41.6016 169.035 41.6016C170.676 41.6016 173.242 40.0664 176.734 36.9961V39.1406C170.805 45.7266 166.562 49.0195 164.008 49.0195C163.094 49.0195 162.438 48.7148 162.039 48.1055C161.664 47.5195 161.477 46.6406 161.477 45.4688C161.477 43.6172 162.145 40.9336 163.48 37.418C160.059 41.2148 157.516 43.9219 155.852 45.5391C154.188 47.1328 152.816 47.9297 151.738 47.9297C151.223 47.9297 150.578 47.4844 149.805 46.5938C149.031 45.7031 148.34 44.5547 147.73 43.1484C147.145 41.7188 146.852 40.2422 146.852 38.7188C146.852 37.6172 146.957 36.7031 147.168 35.9766C147.379 35.2266 147.789 34.4648 148.398 33.6914C149.008 32.918 149.98 31.8984 151.316 30.6328ZM168.156 26.7656C162.062 29.5547 157.715 31.9219 155.113 33.8672C152.535 35.8125 151.246 37.8164 151.246 39.8789C151.246 40.6289 151.375 41.25 151.633 41.7422C151.891 42.2109 152.242 42.4453 152.688 42.4453C152.945 42.4453 153.402 42.2812 154.059 41.9531C156.52 40.5 158.77 38.6133 160.809 36.293C162.848 33.9492 165.297 30.7734 168.156 26.7656ZM200.148 30.5625C196.023 35.1562 193.961 38.3555 193.961 40.1602C193.961 41.168 194.371 41.6719 195.191 41.6719C195.871 41.6719 196.75 41.3203 197.828 40.6172C198.93 39.8906 200.641 38.6133 202.961 36.7852V39.2109C199.633 42.4922 197.078 44.8594 195.297 46.3125C193.516 47.7656 192.062 48.4922 190.938 48.4922C189.016 48.4922 188.055 47.2266 188.055 44.6953C188.055 43.9453 188.172 43.207 188.406 42.4805C188.641 41.7539 188.957 41.0039 189.355 40.2305C189.777 39.4336 190.41 38.3086 191.254 36.8555C192.098 35.3789 193.07 33.7148 194.172 31.8633C192.836 32.543 191.16 33.8906 189.145 35.9062C187.832 37.1719 186.719 38.3789 185.805 39.5273C184.891 40.6523 183.906 41.918 182.852 43.3242C181.82 44.707 181.059 45.6445 180.566 46.1367C180.098 46.6055 179.617 46.8398 179.125 46.8398C178.375 46.8398 177.684 46.0547 177.051 44.4844C176.418 42.9141 176.102 41.0859 176.102 39C176.102 37.7109 176.242 36.7031 176.523 35.9766C176.828 35.25 177.414 34.2188 178.281 32.8828C179.898 30.3984 181.293 28.582 182.465 27.4336C183.637 26.2617 184.762 25.6758 185.84 25.6758C186.59 25.6758 187.188 25.8047 187.633 26.0625C188.102 26.3203 188.336 26.7188 188.336 27.2578C188.336 27.4922 188.266 27.7383 188.125 27.9961C187.984 28.2539 187.82 28.4883 187.633 28.6992C187.469 28.9102 187.105 29.3203 186.543 29.9297C182.84 34.0312 180.988 36.6914 180.988 37.9102C180.988 38.5898 181.211 38.9297 181.656 38.9297C181.938 38.9297 182.477 38.4844 183.273 37.5938C184.094 36.6797 185.137 35.4961 186.402 34.043C187.691 32.5664 189.203 31.0312 190.938 29.4375C192.695 27.8438 194.688 26.3086 196.914 24.832C198.156 23.9648 199.188 23.5312 200.008 23.5312C200.383 23.5312 200.746 24.0469 201.098 25.0781C201.473 26.1094 201.66 27.1523 201.66 28.207C201.66 28.7227 201.156 29.5078 200.148 30.5625ZM215.09 18.6797H216.602C217.844 16.4531 218.969 14.8828 219.977 13.9688C220.984 13.0312 222.133 12.5625 223.422 12.5625C224.711 12.5625 225.355 12.8555 225.355 13.4414C225.355 13.7227 224.852 14.4844 223.844 15.7266C222.836 16.9688 222.074 18.0117 221.559 18.8555C222.355 18.9492 223.059 19.0312 223.668 19.1016C224.301 19.1719 224.793 19.2305 225.145 19.2773C223.809 21.7617 222.133 24.3047 220.117 26.9062C219.461 26.8594 218.91 26.8242 218.465 26.8008C218.02 26.7539 217.562 26.7188 217.094 26.6953C216.648 26.6484 216.098 26.6016 215.441 26.5547C214.176 28.5938 213.109 30.4219 212.242 32.0391C211.398 33.6328 210.742 35.0977 210.273 36.4336C209.828 37.7695 209.605 39.0352 209.605 40.2305C209.605 41.8477 210.25 42.6562 211.539 42.6562C212.43 42.6562 213.59 42.1875 215.02 41.25C216.473 40.2891 218.406 38.8242 220.82 36.8555V39.2109C214.492 46.0781 209.816 49.5117 206.793 49.5117C205.738 49.5117 204.883 49.1016 204.227 48.2812C203.594 47.4609 203.277 46.4062 203.277 45.1172C203.277 44.25 203.453 43.2188 203.805 42.0234C204.18 40.8281 204.836 39.0234 205.773 36.6094C205.445 36.8906 205.129 37.1719 204.824 37.4531C204.543 37.7109 204.273 37.957 204.016 38.1914C203.781 38.4023 203.523 38.6367 203.242 38.8945C202.961 39.1289 202.68 39.375 202.398 39.6328V37.207C204.859 35.1445 207.836 31.5234 211.328 26.3438C210.977 26.3203 210.648 26.3086 210.344 26.3086C210.039 26.2852 209.676 26.2734 209.254 26.2734C207.871 26.2734 206.84 26.3672 206.16 26.5547C205.879 26.625 205.609 26.707 205.352 26.8008C205.117 26.8711 204.953 26.9062 204.859 26.9062C204.766 26.9062 204.719 26.8359 204.719 26.6953C204.719 25.9219 205.199 24.7617 206.16 23.2148C206.934 21.9023 207.66 20.9297 208.34 20.2969C209.043 19.6641 209.887 19.2422 210.871 19.0312C211.879 18.7969 213.285 18.6797 215.09 18.6797Z" fill="black"/>
</svg>
